  0
SECTION
  2
HEADER
  9
$ACADVER
  1
AC1014
  9
$HANDSEED
  5
FFFF
  9
$MEASUREMENT
 70
     1
  0
ENDSEC
  0
SECTION
  2
TABLES
  0
TABLE
  2
VPORT
  5
8
330
0
100
AcDbSymbolTable
 70
     4
  0
VPORT
  5
2E
330
8
100
AcDbSymbolTableRecord
100
AcDbViewportTableRecord
  2
*ACTIVE
 70
     0
 10
0.0
 20
0.0
 11
1.0
 21
1.0
 12
210.0
 22
148.5
 13
0.0
 23
0.0
 14
10.0
 24
10.0
 15
10.0
 25
10.0
 16
0.0
 26
0.0
 36
1.0
 17
0.0
 27
0.0
 37
0.0
 40
341.0
 41
1.24
 42
50.0
 43
0.0
 44
0.0
 50
0.0
 51
0.0
 71
     0
 72
   100
 73
     1
 74
     3
 75
     0
 76
     0
 77
     0
 78
     0
  0
ENDTAB
  0
TABLE
  2
LTYPE
  5
5
330
0
100
AcDbSymbolTable
 70
     1
  0
LTYPE
  5
14
330
5
100
AcDbSymbolTableRecord
100
AcDbLinetypeTableRecord
  2
BYBLOCK
 70
     0
  3

 72
    65
 73
     0
 40
0.0
  0
LTYPE
  5
15
330
5
100
AcDbSymbolTableRecord
100
AcDbLinetypeTableRecord
  2
BYLAYER
 70
     0
  3

 72
    65
 73
     0
 40
0.0
  0
LTYPE
  5
16
330
5
100
AcDbSymbolTableRecord
100
AcDbLinetypeTableRecord
  2
CONTINUOUS
 70
     0
  3
Solid line
 72
    65
 73
     0
 40
0.0
  0
ENDTAB
  0
TABLE
  2
LAYER
  5
2
100
AcDbSymbolTable
 70
2
  0
LAYER
  5
50
100
AcDbSymbolTableRecord
100
AcDbLayerTableRecord
  2
0
 70
0
  6
CONTINUOUS
  0
LAYER
  5
51
100
AcDbSymbolTableRecord
100
AcDbLayerTableRecord
  2
laser
 70
0
  6
CONTINUOUS
  0
ENDTAB
  0
TABLE
  2
STYLE
  5
3
330
0
100
AcDbSymbolTable
 70
     1
  0
STYLE
  5
11
330
3
100
AcDbSymbolTableRecord
100
AcDbTextStyleTableRecord
  2
STANDARD
 70
     0
 40
0.0
 41
1.0
 50
0.0
 71
     0
 42
2.5
  3
txt
  4

  0
ENDTAB
  0
TABLE
  2
VIEW
  5
6
330
0
100
AcDbSymbolTable
 70
     0
  0
ENDTAB
  0
TABLE
  2
UCS
  5
7
330
0
100
AcDbSymbolTable
 70
     0
  0
ENDTAB
  0
TABLE
  2
APPID
  5
9
330
0
100
AcDbSymbolTable
 70
     2
  0
APPID
  5
12
330
9
100
AcDbSymbolTableRecord
100
AcDbRegAppTableRecord
  2
ACAD
 70
     0
  0
ENDTAB
  0
TABLE
  2
DIMSTYLE
  5
A
330
0
100
AcDbSymbolTable
 70
     1
  0
DIMSTYLE
105
27
330
A
100
AcDbSymbolTableRecord
100
AcDbDimStyleTableRecord
  2
ISO-25
 70
     0
  3

  4

  5

  6

  7

 40
1.0
 41
2.5
 42
0.625
 43
3.75
 44
1.25
 45
0.0
 46
0.0
 47
0.0
 48
0.0
140
2.5
141
2.5
142
0.0
143
0.03937007874016
144
1.0
145
0.0
146
1.0
147
0.625
 71
     0
 72
     0
 73
     0
 74
     0
 75
     0
 76
     0
 77
     1
 78
     8
170
     0
171
     3
172
     1
173
     0
174
     0
175
     0
176
     0
177
     0
178
     0
270
     2
271
     2
272
     2
273
     2
274
     3
340
11
275
     0
280
     0
281
     0
282
     0
283
     0
284
     8
285
     0
286
     0
287
     3
288
     0
  0
ENDTAB
  0
TABLE
  2
BLOCK_RECORD
  5
1
330
0
100
AcDbSymbolTable
 70
     1
  0
BLOCK_RECORD
  5
1F
330
1
100
AcDbSymbolTableRecord
100
AcDbBlockTableRecord
  2
*MODEL_SPACE
  0
BLOCK_RECORD
  5
1B
330
1
100
AcDbSymbolTableRecord
100
AcDbBlockTableRecord
  2
*PAPER_SPACE
  0
ENDTAB
  0
ENDSEC
  0
SECTION
  2
BLOCKS
  0
BLOCK
  5
20
330
1F
100
AcDbEntity
  8
0
100
AcDbBlockBegin
  2
*MODEL_SPACE
 70
     0
 10
0.0
 20
0.0
 30
0.0
  3
*MODEL_SPACE
  1

  0
ENDBLK
  5
21
330
1F
100
AcDbEntity
  8
0
100
AcDbBlockEnd
  0
BLOCK
  5
1C
330
1B
100
AcDbEntity
 67
     1
  8
0
100
AcDbBlockBegin
  2
*PAPER_SPACE
  1

  0
ENDBLK
  5
1D
330
1B
100
AcDbEntity
 67
     1
  8
0
100
AcDbBlockEnd
  0
ENDSEC
  0
SECTION
  2
ENTITIES
  0
SPLINE
  5
100
100
AcDbEntity
  8
0
 62
7
100
AcDbSpline
 70
8
 71
3
 72
8
 73
4
 74
0
 40
0
 40
0
 40
0
 40
0
 40
1
 40
1
 40
1
 40
1
 10
1378.764626
 20
990.917529
 30
0.0
 10
1378.766351
 20
992.041072
 30
0.0
 10
1378.167939
 20
993.080007
 30
0.0
 10
1377.195209
 20
993.642277
 30
0.0
  0
SPLINE
  5
101
100
AcDbEntity
  8
0
 62
7
100
AcDbSpline
 70
8
 71
3
 72
8
 73
4
 74
0
 40
0
 40
0
 40
0
 40
0
 40
1
 40
1
 40
1
 40
1
 10
1377.195209
 20
993.642277
 30
0.0
 10
1376.222478
 20
994.204547
 30
0.0
 10
1375.023527
 20
994.204547
 30
0.0
 10
1374.050797
 20
993.642277
 30
0.0
  0
SPLINE
  5
102
100
AcDbEntity
  8
0
 62
7
100
AcDbSpline
 70
8
 71
3
 72
8
 73
4
 74
0
 40
0
 40
0
 40
0
 40
0
 40
1
 40
1
 40
1
 40
1
 10
1374.050797
 20
993.642277
 30
0.0
 10
1373.078067
 20
993.080007
 30
0.0
 10
1372.479655
 20
992.041072
 30
0.0
 10
1372.481380
 20
990.917529
 30
0.0
  0
SPLINE
  5
103
100
AcDbEntity
  8
0
 62
7
100
AcDbSpline
 70
8
 71
3
 72
8
 73
4
 74
0
 40
0
 40
0
 40
0
 40
0
 40
1
 40
1
 40
1
 40
1
 10
1372.481380
 20
990.917529
 30
0.0
 10
1372.479655
 20
989.793986
 30
0.0
 10
1373.078067
 20
988.755051
 30
0.0
 10
1374.050797
 20
988.192781
 30
0.0
  0
SPLINE
  5
104
100
AcDbEntity
  8
0
 62
7
100
AcDbSpline
 70
8
 71
3
 72
8
 73
4
 74
0
 40
0
 40
0
 40
0
 40
0
 40
1
 40
1
 40
1
 40
1
 10
1374.050797
 20
988.192781
 30
0.0
 10
1375.023527
 20
987.630511
 30
0.0
 10
1376.222478
 20
987.630511
 30
0.0
 10
1377.195209
 20
988.192781
 30
0.0
  0
SPLINE
  5
105
100
AcDbEntity
  8
0
 62
7
100
AcDbSpline
 70
8
 71
3
 72
8
 73
4
 74
0
 40
0
 40
0
 40
0
 40
0
 40
1
 40
1
 40
1
 40
1
 10
1377.195209
 20
988.192781
 30
0.0
 10
1378.167939
 20
988.755051
 30
0.0
 10
1378.766351
 20
989.793986
 30
0.0
 10
1378.764626
 20
990.917529
 30
0.0
  0
SPLINE
  5
106
100
AcDbEntity
  8
0
 62
7
100
AcDbSpline
 70
8
 71
3
 72
8
 73
4
 74
0
 40
0
 40
0
 40
0
 40
0
 40
1
 40
1
 40
1
 40
1
 10
1458.631751
 20
990.917529
 30
0.0
 10
1458.633476
 20
992.041072
 30
0.0
 10
1458.035064
 20
993.080007
 30
0.0
 10
1457.062334
 20
993.642277
 30
0.0
  0
SPLINE
  5
107
100
AcDbEntity
  8
0
 62
7
100
AcDbSpline
 70
8
 71
3
 72
8
 73
4
 74
0
 40
0
 40
0
 40
0
 40
0
 40
1
 40
1
 40
1
 40
1
 10
1457.062334
 20
993.642277
 30
0.0
 10
1456.089603
 20
994.204547
 30
0.0
 10
1454.890652
 20
994.204547
 30
0.0
 10
1453.917922
 20
993.642277
 30
0.0
  0
SPLINE
  5
108
100
AcDbEntity
  8
0
 62
7
100
AcDbSpline
 70
8
 71
3
 72
8
 73
4
 74
0
 40
0
 40
0
 40
0
 40
0
 40
1
 40
1
 40
1
 40
1
 10
1453.917922
 20
993.642277
 30
0.0
 10
1452.945192
 20
993.080007
 30
0.0
 10
1452.346780
 20
992.041072
 30
0.0
 10
1452.348505
 20
990.917529
 30
0.0
  0
SPLINE
  5
109
100
AcDbEntity
  8
0
 62
7
100
AcDbSpline
 70
8
 71
3
 72
8
 73
4
 74
0
 40
0
 40
0
 40
0
 40
0
 40
1
 40
1
 40
1
 40
1
 10
1452.348505
 20
990.917529
 30
0.0
 10
1452.346780
 20
989.793986
 30
0.0
 10
1452.945192
 20
988.755051
 30
0.0
 10
1453.917922
 20
988.192781
 30
0.0
  0
SPLINE
  5
10a
100
AcDbEntity
  8
0
 62
7
100
AcDbSpline
 70
8
 71
3
 72
8
 73
4
 74
0
 40
0
 40
0
 40
0
 40
0
 40
1
 40
1
 40
1
 40
1
 10
1453.917922
 20
988.192781
 30
0.0
 10
1454.890652
 20
987.630511
 30
0.0
 10
1456.089603
 20
987.630511
 30
0.0
 10
1457.062334
 20
988.192781
 30
0.0
  0
SPLINE
  5
10b
100
AcDbEntity
  8
0
 62
7
100
AcDbSpline
 70
8
 71
3
 72
8
 73
4
 74
0
 40
0
 40
0
 40
0
 40
0
 40
1
 40
1
 40
1
 40
1
 10
1457.062334
 20
988.192781
 30
0.0
 10
1458.035064
 20
988.755051
 30
0.0
 10
1458.633476
 20
989.793986
 30
0.0
 10
1458.631751
 20
990.917529
 30
0.0
  0
LWPOLYLINE
  5
10c
100
AcDbEntity
  8
0
 62
7
100
AcDbPolyline
 90
1
 70
1
 10
1378.764626
 20
990.917529
 30
0.0
  0
LWPOLYLINE
  5
10d
100
AcDbEntity
  8
0
 62
7
100
AcDbPolyline
 90
1
 70
1
 10
1458.631751
 20
990.917529
 30
0.0
  0
SPLINE
  5
10e
100
AcDbEntity
  8
laser
 62
7
100
AcDbSpline
 70
8
 71
3
 72
8
 73
4
 74
0
 40
0
 40
0
 40
0
 40
0
 40
1
 40
1
 40
1
 40
1
 10
149.048833
 20
131.212222
 30
0.0
 10
148.969048
 20
155.074141
 30
0.0
 10
137.083552
 20
177.349624
 30
0.0
 10
117.306982
 20
190.701959
 30
0.0
  0
SPLINE
  5
10f
100
AcDbEntity
  8
laser
 62
7
100
AcDbSpline
 70
8
 71
3
 72
8
 73
4
 74
0
 40
0
 40
0
 40
0
 40
0
 40
1
 40
1
 40
1
 40
1
 10
117.306982
 20
190.701959
 30
0.0
 10
116.738298
 20
191.788849
 30
0.0
 10
117.310448
 20
193.174588
 30
0.0
 10
118.718270
 20
193.658863
 30
0.0
  0
SPLINE
  5
110
100
AcDbEntity
  8
laser
 62
7
100
AcDbSpline
 70
8
 71
3
 72
8
 73
4
 74
0
 40
0
 40
0
 40
0
 40
0
 40
1
 40
1
 40
1
 40
1
 10
118.718270
 20
193.658863
 30
0.0
 10
119.297459
 20
194.867075
 30
0.0
 10
118.819198
 20
196.317039
 30
0.0
 10
117.634841
 20
196.943562
 30
0.0
  0
SPLINE
  5
111
100
AcDbEntity
  8
laser
 62
7
100
AcDbSpline
 70
8
 71
3
 72
8
 73
4
 74
0
 40
0
 40
0
 40
0
 40
0
 40
1
 40
1
 40
1
 40
1
 10
117.634841
 20
196.943562
 30
0.0
 10
116.450484
 20
197.570082
 30
0.0
 10
114.913218
 20
197.205169
 30
0.0
 10
114.309862
 20
195.990901
 30
0.0
  0
SPLINE
  5
112
100
AcDbEntity
  8
laser
 62
7
100
AcDbSpline
 70
8
 71
3
 72
8
 73
4
 74
0
 40
0
 40
0
 40
0
 40
0
 40
1
 40
1
 40
1
 40
1
 10
114.309862
 20
195.990901
 30
0.0
 10
114.948465
 20
194.270323
 30
0.0
 10
114.065210
 20
193.341067
 30
0.0
 10
113.074231
 20
193.441534
 30
0.0
  0
SPLINE
  5
113
100
AcDbEntity
  8
laser
 62
7
100
AcDbSpline
 70
8
 71
3
 72
8
 73
4
 74
0
 40
0
 40
0
 40
0
 40
0
 40
1
 40
1
 40
1
 40
1
 10
113.074231
 20
193.441534
 30
0.0
 10
90.879050
 20
206.189800
 30
0.0
 10
63.583263
 20
206.191109
 30
0.0
 10
41.386859
 20
193.444974
 30
0.0
  0
SPLINE
  5
114
100
AcDbEntity
  8
laser
 62
7
100
AcDbSpline
 70
8
 71
3
 72
8
 73
4
 74
0
 40
0
 40
0
 40
0
 40
0
 40
1
 40
1
 40
1
 40
1
 10
41.386859
 20
193.444974
 30
0.0
 10
39.647803
 20
193.359889
 30
0.0
 10
40.369962
 20
195.246331
 30
0.0
 10
40.048834
 20
196.169336
 30
0.0
  0
SPLINE
  5
115
100
AcDbEntity
  8
laser
 62
7
100
AcDbSpline
 70
8
 71
3
 72
8
 73
4
 74
0
 40
0
 40
0
 40
0
 40
0
 40
1
 40
1
 40
1
 40
1
 10
40.048834
 20
196.169336
 30
0.0
 10
39.301135
 20
197.230233
 30
0.0
 10
37.866085
 20
197.542774
 30
0.0
 10
36.744927
 20
196.888896
 30
0.0
  0
SPLINE
  5
116
100
AcDbEntity
  8
laser
 62
7
100
AcDbSpline
 70
8
 71
3
 72
8
 73
4
 74
0
 40
0
 40
0
 40
0
 40
0
 40
1
 40
1
 40
1
 40
1
 10
36.744927
 20
196.888896
 30
0.0
 10
35.623765
 20
196.235018
 30
0.0
 10
35.189203
 20
194.832089
 30
0.0
 10
35.744434
 20
193.658942
 30
0.0
  0
SPLINE
  5
117
100
AcDbEntity
  8
laser
 62
7
100
AcDbSpline
 70
8
 71
3
 72
8
 73
4
 74
0
 40
0
 40
0
 40
0
 40
0
 40
1
 40
1
 40
1
 40
1
 10
35.744434
 20
193.658942
 30
0.0
 10
36.621033
 20
193.061392
 30
0.0
 10
38.062689
 20
192.487799
 30
0.0
 10
37.155721
 20
190.702038
 30
0.0
  0
SPLINE
  5
118
100
AcDbEntity
  8
laser
 62
7
100
AcDbSpline
 70
8
 71
3
 72
8
 73
4
 74
0
 40
0
 40
0
 40
0
 40
0
 40
1
 40
1
 40
1
 40
1
 10
37.155721
 20
190.702038
 30
0.0
 10
17.390976
 20
177.339048
 30
0.0
 10
5.509089
 20
155.070331
 30
0.0
 10
5.413871
 20
131.212302
 30
0.0
  0
LWPOLYLINE
  5
119
100
AcDbEntity
  8
laser
 62
7
100
AcDbPolyline
 90
2
 70
0
 10
149.048833
 20
129.666606
 30
0.0
 10
149.048833
 20
131.212222
 30
0.0
  0
SPLINE
  5
11a
100
AcDbEntity
  8
laser
 62
7
100
AcDbSpline
 70
8
 71
3
 72
8
 73
4
 74
0
 40
0
 40
0
 40
0
 40
0
 40
1
 40
1
 40
1
 40
1
 10
0.728231
 20
125.600621
 30
0.0
 10
-1.078219
 20
123.423447
 30
0.0
 10
1.552147
 20
120.392280
 30
0.0
 10
3.962102
 20
121.873992
 30
0.0
  0
LWPOLYLINE
  5
11b
100
AcDbEntity
  8
laser
 62
7
100
AcDbPolyline
 90
3
 70
0
 10
5.413871
 20
131.212302
 30
0.0
 10
5.413871
 20
129.666685
 30
0.0
 10
0.728231
 20
125.600621
 30
0.0
  0
SPLINE
  5
11c
100
AcDbEntity
  8
laser
 62
7
100
AcDbSpline
 70
8
 71
3
 72
8
 73
4
 74
0
 40
0
 40
0
 40
0
 40
0
 40
1
 40
1
 40
1
 40
1
 10
4.979160
 20
122.717430
 30
0.0
 10
5.262402
 20
122.658209
 30
0.0
 10
5.452002
 20
122.390522
 30
0.0
 10
5.413871
 20
122.103676
 30
0.0
  0
LWPOLYLINE
  5
11d
100
AcDbEntity
  8
laser
 62
7
100
AcDbPolyline
 90
2
 70
0
 10
3.962102
 20
121.873992
 30
0.0
 10
4.979160
 20
122.717430
 30
0.0
  0
SPLINE
  5
11e
100
AcDbEntity
  8
laser
 62
7
100
AcDbSpline
 70
8
 71
3
 72
8
 73
4
 74
0
 40
0
 40
0
 40
0
 40
0
 40
1
 40
1
 40
1
 40
1
 10
5.413871
 20
106.031959
 30
0.0
 10
4.353741
 20
80.042401
 30
0.0
 10
13.574303
 20
54.681350
 30
0.0
 10
31.078639
 20
35.441311
 30
0.0
  0
LWPOLYLINE
  5
11f
100
AcDbEntity
  8
laser
 62
7
100
AcDbPolyline
 90
2
 70
0
 10
5.413871
 20
122.103676
 30
0.0
 10
5.413871
 20
106.031959
 30
0.0
  0
SPLINE
  5
120
100
AcDbEntity
  8
laser
 62
7
100
AcDbSpline
 70
8
 71
3
 72
8
 73
4
 74
0
 40
0
 40
0
 40
0
 40
0
 40
1
 40
1
 40
1
 40
1
 10
28.157136
 20
32.453688
 30
0.0
 10
27.689898
 20
31.822006
 30
0.0
 10
27.870889
 20
30.924923
 30
0.0
 10
28.546497
 20
30.523818
 30
0.0
  0
LWPOLYLINE
  5
121
100
AcDbEntity
  8
laser
 62
7
100
AcDbPolyline
 90
2
 70
0
 10
31.078639
 20
35.441311
 30
0.0
 10
28.157136
 20
32.453688
 30
0.0
  0
SPLINE
  5
122
100
AcDbEntity
  8
laser
 62
7
100
AcDbSpline
 70
8
 71
3
 72
8
 73
4
 74
0
 40
0
 40
0
 40
0
 40
0
 40
1
 40
1
 40
1
 40
1
 10
38.338541
 20
21.166431
 30
0.0
 10
41.817542
 20
20.638696
 30
0.0
 10
45.260764
 20
22.315530
 30
0.0
 10
46.990443
 20
25.379868
 30
0.0
  0
SPLINE
  5
123
100
AcDbEntity
  8
laser
 62
7
100
AcDbSpline
 70
8
 71
3
 72
8
 73
4
 74
0
 40
0
 40
0
 40
0
 40
0
 40
1
 40
1
 40
1
 40
1
 10
46.990443
 20
25.379868
 30
0.0
 10
47.439438
 20
25.998993
 30
0.0
 10
47.425333
 20
26.840315
 30
0.0
 10
46.955835
 20
27.444041
 30
0.0
  0
SPLINE
  5
124
100
AcDbEntity
  8
laser
 62
7
100
AcDbSpline
 70
8
 71
3
 72
8
 73
4
 74
0
 40
0
 40
0
 40
0
 40
0
 40
1
 40
1
 40
1
 40
1
 10
46.955835
 20
27.444041
 30
0.0
 10
23.939191
 20
47.148081
 30
0.0
 10
10.588882
 20
75.858166
 30
0.0
 10
10.354435
 20
106.156022
 30
0.0
  0
LWPOLYLINE
  5
125
100
AcDbEntity
  8
laser
 62
7
100
AcDbPolyline
 90
2
 70
0
 10
28.546497
 20
30.523818
 30
0.0
 10
38.338541
 20
21.166431
 30
0.0
  0
SPLINE
  5
126
100
AcDbEntity
  8
laser
 62
7
100
AcDbSpline
 70
8
 71
3
 72
8
 73
4
 74
0
 40
0
 40
0
 40
0
 40
0
 40
1
 40
1
 40
1
 40
1
 10
10.354435
 20
129.015519
 30
0.0
 10
21.691379
 20
155.448902
 30
0.0
 10
47.321950
 20
172.914964
 30
0.0
 10
76.070347
 20
173.797915
 30
0.0
  0
SPLINE
  5
127
100
AcDbEntity
  8
laser
 62
7
100
AcDbSpline
 70
8
 71
3
 72
8
 73
4
 74
0
 40
0
 40
0
 40
0
 40
0
 40
1
 40
1
 40
1
 40
1
 10
76.070347
 20
173.797915
 30
0.0
 10
104.628236
 20
173.703065
 30
0.0
 10
130.789223
 20
157.814039
 30
0.0
 10
144.039927
 20
132.516195
 30
0.0
  0
LWPOLYLINE
  5
128
100
AcDbEntity
  8
laser
 62
7
100
AcDbPolyline
 90
2
 70
0
 10
10.354435
 20
106.156022
 30
0.0
 10
10.354435
 20
129.015519
 30
0.0
  0
SPLINE
  5
129
100
AcDbEntity
  8
laser
 62
7
100
AcDbSpline
 70
8
 71
3
 72
8
 73
4
 74
0
 40
0
 40
0
 40
0
 40
0
 40
1
 40
1
 40
1
 40
1
 10
144.108242
 20
106.156022
 30
0.0
 10
143.573321
 20
75.781794
 30
0.0
 10
130.156660
 20
47.065666
 30
0.0
 10
107.202757
 20
27.165964
 30
0.0
  0
SPLINE
  5
12a
100
AcDbEntity
  8
laser
 62
7
100
AcDbSpline
 70
8
 71
3
 72
8
 73
4
 74
0
 40
0
 40
0
 40
0
 40
0
 40
1
 40
1
 40
1
 40
1
 10
107.202757
 20
27.165964
 30
0.0
 10
106.811144
 20
26.852391
 30
0.0
 10
106.729499
 20
26.288995
 30
0.0
 10
107.015987
 20
25.877152
 30
0.0
  0
LWPOLYLINE
  5
12b
100
AcDbEntity
  8
laser
 62
7
100
AcDbPolyline
 90
2
 70
0
 10
144.039927
 20
132.516195
 30
0.0
 10
144.108242
 20
106.156022
 30
0.0
  0
SPLINE
  5
12c
100
AcDbEntity
  8
laser
 62
7
100
AcDbSpline
 70
8
 71
3
 72
8
 73
4
 74
0
 40
0
 40
0
 40
0
 40
0
 40
1
 40
1
 40
1
 40
1
 10
108.561921
 20
23.858408
 30
0.0
 10
110.470057
 20
21.751946
 30
0.0
 10
113.306445
 20
20.741259
 30
0.0
 10
116.116675
 20
21.166431
 30
0.0
  0
LWPOLYLINE
  5
12d
100
AcDbEntity
  8
laser
 62
7
100
AcDbPolyline
 90
2
 70
0
 10
107.015987
 20
25.877152
 30
0.0
 10
108.561921
 20
23.858408
 30
0.0
  0
SPLINE
  5
12e
100
AcDbEntity
  8
laser
 62
7
100
AcDbSpline
 70
8
 71
3
 72
8
 73
4
 74
0
 40
0
 40
0
 40
0
 40
0
 40
1
 40
1
 40
1
 40
1
 10
126.237437
 20
30.799725
 30
0.0
 10
126.593400
 20
31.213756
 30
0.0
 10
126.659371
 20
31.803581
 30
0.0
 10
126.403675
 20
32.286022
 30
0.0
  0
LWPOLYLINE
  5
12f
100
AcDbEntity
  8
laser
 62
7
100
AcDbPolyline
 90
2
 70
0
 10
116.116675
 20
21.166431
 30
0.0
 10
126.237437
 20
30.799725
 30
0.0
  0
SPLINE
  5
130
100
AcDbEntity
  8
laser
 62
7
100
AcDbSpline
 70
8
 71
3
 72
8
 73
4
 74
0
 40
0
 40
0
 40
0
 40
0
 40
1
 40
1
 40
1
 40
1
 10
123.376551
 20
35.441311
 30
0.0
 10
140.365857
 20
54.989024
 30
0.0
 10
149.511724
 20
80.137262
 30
0.0
 10
149.048833
 20
106.031959
 30
0.0
  0
LWPOLYLINE
  5
131
100
AcDbEntity
  8
laser
 62
7
100
AcDbPolyline
 90
2
 70
0
 10
126.403675
 20
32.286022
 30
0.0
 10
123.376551
 20
35.441311
 30
0.0
  0
SPLINE
  5
132
100
AcDbEntity
  8
laser
 62
7
100
AcDbSpline
 70
8
 71
3
 72
8
 73
4
 74
0
 40
0
 40
0
 40
0
 40
0
 40
1
 40
1
 40
1
 40
1
 10
149.048833
 20
122.646469
 30
0.0
 10
149.090069
 20
122.833178
 30
0.0
 10
149.320732
 20
122.901430
 30
0.0
 10
149.456927
 20
122.767225
 30
0.0
  0
LWPOLYLINE
  5
133
100
AcDbEntity
  8
laser
 62
7
100
AcDbPolyline
 90
2
 70
0
 10
149.048833
 20
106.031959
 30
0.0
 10
149.048833
 20
122.646469
 30
0.0
  0
SPLINE
  5
134
100
AcDbEntity
  8
laser
 62
7
100
AcDbSpline
 70
8
 71
3
 72
8
 73
4
 74
0
 40
0
 40
0
 40
0
 40
0
 40
1
 40
1
 40
1
 40
1
 10
150.188208
 20
122.059173
 30
0.0
 10
152.441487
 20
120.201857
 30
0.0
 10
155.517306
 20
123.032229
 30
0.0
 10
153.853349
 20
125.431844
 30
0.0
  0
LWPOLYLINE
  5
135
100
AcDbEntity
  8
laser
 62
7
100
AcDbPolyline
 90
2
 70
0
 10
149.456927
 20
122.767225
 30
0.0
 10
150.188208
 20
122.059173
 30
0.0
  0
SPLINE
  5
136
100
AcDbEntity
  8
laser
 62
7
100
AcDbSpline
 70
8
 71
3
 72
8
 73
4
 74
0
 40
0
 40
0
 40
0
 40
0
 40
1
 40
1
 40
1
 40
1
 10
37.447657
 20
26.463215
 30
0.0
 10
38.846235
 20
26.445492
 30
0.0
 10
39.994522
 20
27.564600
 30
0.0
 10
40.012787
 20
28.963162
 30
0.0
  0
SPLINE
  5
137
100
AcDbEntity
  8
laser
 62
7
100
AcDbSpline
 70
8
 71
3
 72
8
 73
4
 74
0
 40
0
 40
0
 40
0
 40
0
 40
1
 40
1
 40
1
 40
1
 10
40.012787
 20
28.963162
 30
0.0
 10
40.031053
 20
30.361725
 30
0.0
 10
38.912385
 20
31.510439
 30
0.0
 10
37.513822
 20
31.529248
 30
0.0
  0
SPLINE
  5
138
100
AcDbEntity
  8
laser
 62
7
100
AcDbSpline
 70
8
 71
3
 72
8
 73
4
 74
0
 40
0
 40
0
 40
0
 40
0
 40
1
 40
1
 40
1
 40
1
 10
37.513822
 20
31.529248
 30
0.0
 10
36.115259
 20
31.548056
 30
0.0
 10
34.966104
 20
30.429840
 30
0.0
 10
34.946752
 20
29.031292
 30
0.0
  0
SPLINE
  5
139
100
AcDbEntity
  8
laser
 62
7
100
AcDbSpline
 70
8
 71
3
 72
8
 73
4
 74
0
 40
0
 40
0
 40
0
 40
0
 40
1
 40
1
 40
1
 40
1
 10
34.946752
 20
29.031292
 30
0.0
 10
34.927401
 20
27.632745
 30
0.0
 10
36.045176
 20
26.483163
 30
0.0
 10
37.443723
 20
26.463268
 30
0.0
  0
SPLINE
  5
13a
100
AcDbEntity
  8
laser
 62
7
100
AcDbSpline
 70
8
 71
3
 72
8
 73
4
 74
0
 40
0
 40
0
 40
0
 40
0
 40
1
 40
1
 40
1
 40
1
 10
116.979598
 20
26.439249
 30
0.0
 10
118.378175
 20
26.421528
 30
0.0
 10
119.526461
 20
27.540636
 30
0.0
 10
119.544725
 20
28.939199
 30
0.0
  0
SPLINE
  5
13b
100
AcDbEntity
  8
laser
 62
7
100
AcDbSpline
 70
8
 71
3
 72
8
 73
4
 74
0
 40
0
 40
0
 40
0
 40
0
 40
1
 40
1
 40
1
 40
1
 10
119.544725
 20
28.939199
 30
0.0
 10
119.562991
 20
30.337761
 30
0.0
 10
118.444322
 20
31.486476
 30
0.0
 10
117.045759
 20
31.505284
 30
0.0
  0
SPLINE
  5
13c
100
AcDbEntity
  8
laser
 62
7
100
AcDbSpline
 70
8
 71
3
 72
8
 73
4
 74
0
 40
0
 40
0
 40
0
 40
0
 40
1
 40
1
 40
1
 40
1
 10
117.045759
 20
31.505284
 30
0.0
 10
115.647196
 20
31.524092
 30
0.0
 10
114.498042
 20
30.405877
 30
0.0
 10
114.478690
 20
29.007329
 30
0.0
  0
SPLINE
  5
13d
100
AcDbEntity
  8
laser
 62
7
100
AcDbSpline
 70
8
 71
3
 72
8
 73
4
 74
0
 40
0
 40
0
 40
0
 40
0
 40
1
 40
1
 40
1
 40
1
 10
114.478690
 20
29.007329
 30
0.0
 10
114.459337
 20
27.608780
 30
0.0
 10
115.577114
 20
26.459196
 30
0.0
 10
116.975663
 20
26.439302
 30
0.0
  0
SPLINE
  5
13e
100
AcDbEntity
  8
laser
 62
7
100
AcDbSpline
 70
8
 71
3
 72
8
 73
4
 74
0
 40
0
 40
0
 40
0
 40
0
 40
1
 40
1
 40
1
 40
1
 10
76.901292
 20
197.611389
 30
0.0
 10
79.622150
 20
197.645867
 30
0.0
 10
81.856080
 20
195.468691
 30
0.0
 10
81.891614
 20
192.747848
 30
0.0
  0
SPLINE
  5
13f
100
AcDbEntity
  8
laser
 62
7
100
AcDbSpline
 70
8
 71
3
 72
8
 73
4
 74
0
 40
0
 40
0
 40
0
 40
0
 40
1
 40
1
 40
1
 40
1
 10
81.891614
 20
192.747848
 30
0.0
 10
81.927149
 20
190.027005
 30
0.0
 10
79.750840
 20
187.792231
 30
0.0
 10
77.030009
 20
187.755640
 30
0.0
  0
SPLINE
  5
140
100
AcDbEntity
  8
laser
 62
7
100
AcDbSpline
 70
8
 71
3
 72
8
 73
4
 74
0
 40
0
 40
0
 40
0
 40
0
 40
1
 40
1
 40
1
 40
1
 10
77.030009
 20
187.755640
 30
0.0
 10
74.309179
 20
187.719049
 30
0.0
 10
72.073559
 20
189.894489
 30
0.0
 10
72.035912
 20
192.615303
 30
0.0
  0
SPLINE
  5
141
100
AcDbEntity
  8
laser
 62
7
100
AcDbSpline
 70
8
 71
3
 72
8
 73
4
 74
0
 40
0
 40
0
 40
0
 40
0
 40
1
 40
1
 40
1
 40
1
 10
72.035912
 20
192.615303
 30
0.0
 10
71.998264
 20
195.336116
 30
0.0
 10
74.172835
 20
197.572580
 30
0.0
 10
76.893635
 20
197.611286
 30
0.0
  0
SPLINE
  5
142
100
AcDbEntity
  8
laser
 62
7
100
AcDbSpline
 70
8
 71
3
 72
8
 73
4
 74
0
 40
0
 40
0
 40
0
 40
0
 40
1
 40
1
 40
1
 40
1
 10
61.555459
 20
189.673889
 30
0.0
 10
64.276317
 20
189.708367
 30
0.0
 10
66.510247
 20
187.531190
 30
0.0
 10
66.545781
 20
184.810347
 30
0.0
  0
SPLINE
  5
143
100
AcDbEntity
  8
laser
 62
7
100
AcDbSpline
 70
8
 71
3
 72
8
 73
4
 74
0
 40
0
 40
0
 40
0
 40
0
 40
1
 40
1
 40
1
 40
1
 10
66.545781
 20
184.810347
 30
0.0
 10
66.581316
 20
182.089504
 30
0.0
 10
64.405006
 20
179.854730
 30
0.0
 10
61.684176
 20
179.818139
 30
0.0
  0
SPLINE
  5
144
100
AcDbEntity
  8
laser
 62
7
100
AcDbSpline
 70
8
 71
3
 72
8
 73
4
 74
0
 40
0
 40
0
 40
0
 40
0
 40
1
 40
1
 40
1
 40
1
 10
61.684176
 20
179.818139
 30
0.0
 10
58.963346
 20
179.781548
 30
0.0
 10
56.727726
 20
181.956988
 30
0.0
 10
56.690078
 20
184.677802
 30
0.0
  0
SPLINE
  5
145
100
AcDbEntity
  8
laser
 62
7
100
AcDbSpline
 70
8
 71
3
 72
8
 73
4
 74
0
 40
0
 40
0
 40
0
 40
0
 40
1
 40
1
 40
1
 40
1
 10
56.690078
 20
184.677802
 30
0.0
 10
56.652429
 20
187.398616
 30
0.0
 10
58.827001
 20
189.635080
 30
0.0
 10
61.547802
 20
189.673786
 30
0.0
  0
SPLINE
  5
146
100
AcDbEntity
  8
laser
 62
7
100
AcDbSpline
 70
8
 71
3
 72
8
 73
4
 74
0
 40
0
 40
0
 40
0
 40
0
 40
1
 40
1
 40
1
 40
1
 10
92.776292
 20
189.673889
 30
0.0
 10
95.497150
 20
189.708367
 30
0.0
 10
97.731080
 20
187.531190
 30
0.0
 10
97.766614
 20
184.810347
 30
0.0
  0
SPLINE
  5
147
100
AcDbEntity
  8
laser
 62
7
100
AcDbSpline
 70
8
 71
3
 72
8
 73
4
 74
0
 40
0
 40
0
 40
0
 40
0
 40
1
 40
1
 40
1
 40
1
 10
97.766614
 20
184.810347
 30
0.0
 10
97.802149
 20
182.089504
 30
0.0
 10
95.625840
 20
179.854730
 30
0.0
 10
92.905009
 20
179.818139
 30
0.0
  0
SPLINE
  5
148
100
AcDbEntity
  8
laser
 62
7
100
AcDbSpline
 70
8
 71
3
 72
8
 73
4
 74
0
 40
0
 40
0
 40
0
 40
0
 40
1
 40
1
 40
1
 40
1
 10
92.905009
 20
179.818139
 30
0.0
 10
90.184179
 20
179.781548
 30
0.0
 10
87.948560
 20
181.956988
 30
0.0
 10
87.910912
 20
184.677802
 30
0.0
  0
SPLINE
  5
149
100
AcDbEntity
  8
laser
 62
7
100
AcDbSpline
 70
8
 71
3
 72
8
 73
4
 74
0
 40
0
 40
0
 40
0
 40
0
 40
1
 40
1
 40
1
 40
1
 10
87.910912
 20
184.677802
 30
0.0
 10
87.873263
 20
187.398616
 30
0.0
 10
90.047834
 20
189.635080
 30
0.0
 10
92.768635
 20
189.673786
 30
0.0
  0
SPLINE
  5
14a
100
AcDbEntity
  8
laser
 62
7
100
AcDbSpline
 70
8
 71
3
 72
8
 73
4
 74
0
 40
0
 40
0
 40
0
 40
0
 40
1
 40
1
 40
1
 40
1
 10
195.249932
 20
191.467337
 30
0.0
 10
196.748538
 20
191.486337
 30
0.0
 10
197.978958
 20
190.287187
 30
0.0
 10
197.998530
 20
188.788592
 30
0.0
  0
SPLINE
  5
14b
100
AcDbEntity
  8
laser
 62
7
100
AcDbSpline
 70
8
 71
3
 72
8
 73
4
 74
0
 40
0
 40
0
 40
0
 40
0
 40
1
 40
1
 40
1
 40
1
 10
197.998530
 20
188.788592
 30
0.0
 10
198.018102
 20
187.290001
 30
0.0
 10
196.819427
 20
186.059130
 30
0.0
 10
195.320841
 20
186.038979
 30
0.0
  0
SPLINE
  5
14c
100
AcDbEntity
  8
laser
 62
7
100
AcDbSpline
 70
8
 71
3
 72
8
 73
4
 74
0
 40
0
 40
0
 40
0
 40
0
 40
1
 40
1
 40
1
 40
1
 10
195.320841
 20
186.038979
 30
0.0
 10
193.822256
 20
186.018824
 30
0.0
 10
192.590915
 20
187.217015
 30
0.0
 10
192.570179
 20
188.715588
 30
0.0
  0
SPLINE
  5
14d
100
AcDbEntity
  8
laser
 62
7
100
AcDbSpline
 70
8
 71
3
 72
8
 73
4
 74
0
 40
0
 40
0
 40
0
 40
0
 40
1
 40
1
 40
1
 40
1
 10
192.570179
 20
188.715588
 30
0.0
 10
192.549444
 20
190.214161
 30
0.0
 10
193.747158
 20
191.445962
 30
0.0
 10
195.245725
 20
191.467280
 30
0.0
  0
SPLINE
  5
14e
100
AcDbEntity
  8
laser
 62
7
100
AcDbSpline
 70
8
 71
3
 72
8
 73
4
 74
0
 40
0
 40
0
 40
0
 40
0
 40
1
 40
1
 40
1
 40
1
 10
275.114200
 20
191.467337
 30
0.0
 10
276.612796
 20
191.486322
 30
0.0
 10
277.843199
 20
190.287177
 30
0.0
 10
277.862771
 20
188.788592
 30
0.0
  0
SPLINE
  5
14f
100
AcDbEntity
  8
laser
 62
7
100
AcDbSpline
 70
8
 71
3
 72
8
 73
4
 74
0
 40
0
 40
0
 40
0
 40
0
 40
1
 40
1
 40
1
 40
1
 10
277.862771
 20
188.788592
 30
0.0
 10
277.882343
 20
187.290001
 30
0.0
 10
276.683668
 20
186.059130
 30
0.0
 10
275.185082
 20
186.038979
 30
0.0
  0
SPLINE
  5
150
100
AcDbEntity
  8
laser
 62
7
100
AcDbSpline
 70
8
 71
3
 72
8
 73
4
 74
0
 40
0
 40
0
 40
0
 40
0
 40
1
 40
1
 40
1
 40
1
 10
275.185082
 20
186.038979
 30
0.0
 10
273.686497
 20
186.018824
 30
0.0
 10
272.455156
 20
187.217015
 30
0.0
 10
272.434420
 20
188.715588
 30
0.0
  0
SPLINE
  5
151
100
AcDbEntity
  8
laser
 62
7
100
AcDbSpline
 70
8
 71
3
 72
8
 73
4
 74
0
 40
0
 40
0
 40
0
 40
0
 40
1
 40
1
 40
1
 40
1
 10
272.434420
 20
188.715588
 30
0.0
 10
272.413685
 20
190.214161
 30
0.0
 10
273.611399
 20
191.445962
 30
0.0
 10
275.109966
 20
191.467280
 30
0.0
  0
SPLINE
  5
152
100
AcDbEntity
  8
laser
 62
7
100
AcDbSpline
 70
8
 71
3
 72
8
 73
4
 74
0
 40
0
 40
0
 40
0
 40
0
 40
1
 40
1
 40
1
 40
1
 10
354.978441
 20
191.467338
 30
0.0
 10
356.477035
 20
191.486329
 30
0.0
 10
357.707440
 20
190.287182
 30
0.0
 10
357.727012
 20
188.788592
 30
0.0
  0
SPLINE
  5
153
100
AcDbEntity
  8
laser
 62
7
100
AcDbSpline
 70
8
 71
3
 72
8
 73
4
 74
0
 40
0
 40
0
 40
0
 40
0
 40
1
 40
1
 40
1
 40
1
 10
357.727012
 20
188.788592
 30
0.0
 10
357.746584
 20
187.289997
 30
0.0
 10
356.547907
 20
186.059123
 30
0.0
 10
355.049323
 20
186.038978
 30
0.0
  0
SPLINE
  5
154
100
AcDbEntity
  8
laser
 62
7
100
AcDbSpline
 70
8
 71
3
 72
8
 73
4
 74
0
 40
0
 40
0
 40
0
 40
0
 40
1
 40
1
 40
1
 40
1
 10
355.049323
 20
186.038978
 30
0.0
 10
353.550750
 20
186.018832
 30
0.0
 10
352.319424
 20
187.217021
 30
0.0
 10
352.298688
 20
188.715589
 30
0.0
  0
SPLINE
  5
155
100
AcDbEntity
  8
laser
 62
7
100
AcDbSpline
 70
8
 71
3
 72
8
 73
4
 74
0
 40
0
 40
0
 40
0
 40
0
 40
1
 40
1
 40
1
 40
1
 10
352.298688
 20
188.715589
 30
0.0
 10
352.277952
 20
190.214165
 30
0.0
 10
353.475668
 20
191.445968
 30
0.0
 10
354.974234
 20
191.467281
 30
0.0
  0
SPLINE
  5
156
100
AcDbEntity
  8
laser
 62
7
100
AcDbSpline
 70
8
 71
3
 72
8
 73
4
 74
0
 40
0
 40
0
 40
0
 40
0
 40
1
 40
1
 40
1
 40
1
 10
434.776351
 20
191.479974
 30
0.0
 10
436.274946
 20
191.498963
 30
0.0
 10
437.505350
 20
190.299814
 30
0.0
 10
437.524922
 20
188.801223
 30
0.0
  0
SPLINE
  5
157
100
AcDbEntity
  8
laser
 62
7
100
AcDbSpline
 70
8
 71
3
 72
8
 73
4
 74
0
 40
0
 40
0
 40
0
 40
0
 40
1
 40
1
 40
1
 40
1
 10
437.524922
 20
188.801223
 30
0.0
 10
437.544494
 20
187.302627
 30
0.0
 10
436.345818
 20
186.071751
 30
0.0
 10
434.847233
 20
186.051604
 30
0.0
  0
SPLINE
  5
158
100
AcDbEntity
  8
laser
 62
7
100
AcDbSpline
 70
8
 71
3
 72
8
 73
4
 74
0
 40
0
 40
0
 40
0
 40
0
 40
1
 40
1
 40
1
 40
1
 10
434.847233
 20
186.051604
 30
0.0
 10
433.348659
 20
186.031460
 30
0.0
 10
432.117334
 20
187.229650
 30
0.0
 10
432.096598
 20
188.728219
 30
0.0
  0
SPLINE
  5
159
100
AcDbEntity
  8
laser
 62
7
100
AcDbSpline
 70
8
 71
3
 72
8
 73
4
 74
0
 40
0
 40
0
 40
0
 40
0
 40
1
 40
1
 40
1
 40
1
 10
432.096598
 20
188.728219
 30
0.0
 10
432.075862
 20
190.226787
 30
0.0
 10
433.273562
 20
191.458588
 30
0.0
 10
434.772118
 20
191.479917
 30
0.0
  0
LWPOLYLINE
  5
15a
100
AcDbEntity
  8
laser
 62
7
100
AcDbPolyline
 90
2
 70
0
 10
153.853349
 20
125.431844
 30
0.0
 10
149.048833
 20
129.666606
 30
0.0
  0
LWPOLYLINE
  5
15b
100
AcDbEntity
  8
laser
 62
7
100
AcDbPolyline
 90
2
 70
0
 10
452.708486
 20
70.100656
 30
0.0
 10
452.693670
 20
209.501390
 30
0.0
  0
SPLINE
  5
15c
100
AcDbEntity
  8
laser
 62
7
100
AcDbSpline
 70
8
 71
3
 72
8
 73
4
 74
0
 40
0
 40
0
 40
0
 40
0
 40
1
 40
1
 40
1
 40
1
 10
452.708592
 20
70.100656
 30
0.0
 10
453.157458
 20
40.561025
 30
0.0
 10
452.996168
 20
0.312957
 30
0.0
 10
381.814837
 20
0.499277
 30
0.0
  0
SPLINE
  5
15d
100
AcDbEntity
  8
laser
 62
7
100
AcDbSpline
 70
8
 71
3
 72
8
 73
4
 74
0
 40
0
 40
0
 40
0
 40
0
 40
1
 40
1
 40
1
 40
1
 10
174.830237
 20
70.100658
 30
0.0
 10
174.381372
 20
40.561025
 30
0.0
 10
174.542662
 20
0.312957
 30
0.0
 10
245.723992
 20
0.499277
 30
0.0
  0
LWPOLYLINE
  5
15e
100
AcDbEntity
  8
laser
 62
7
100
AcDbPolyline
 90
3
 70
0
 10
174.830237
 20
70.100658
 30
0.0
 10
174.845054
 20
209.501390
 30
0.0
 10
452.693511
 20
209.501390
 30
0.0
  0
LWPOLYLINE
  5
15f
100
AcDbEntity
  8
laser
 62
7
100
AcDbPolyline
 90
2
 70
0
 10
245.723992
 20
0.499277
 30
0.0
 10
381.814731
 20
0.499277
 30
0.0
  0
ENDSEC
  0
SECTION
  2
OBJECTS
  0
DICTIONARY
  5
C
330
0
100
AcDbDictionary
  3
ACAD_GROUP
350
D
  3
ACAD_MLINESTYLE
350
17
  0
DICTIONARY
  5
D
330
C
100
AcDbDictionary
  0
DICTIONARY
  5
1A
330
C
100
AcDbDictionary
  0
DICTIONARY
  5
17
330
C
100
AcDbDictionary
  3
STANDARD
350
18
  0
DICTIONARY
  5
19
330
C
100
AcDbDictionary
  0
ENDSEC
  0
EOF
